<svg xmlns="http://www.w3.org/2000/svg" viewBox="0 0 62 88.15"><path fill="#f24b0f" d="M19.19 53.5A79.14 79.14 0 0 1 0 60.73a77.35 77.35 0 0 1 9.4-23.91s1-1.87 2.11-1.51.8 1.68.61 2.53c0 0-1.45 5.2-2.4 7.65 0 0-.88 2.42 0 3.33s2.55 1.11 6.36.07c3.48-1 9.64-2.75 18.81-9.81 1.65-1.27 2.61-2.17 3.13-1.7s.34.82-1 2.47A71.18 71.18 0 0 1 19.19 53.5Z"/><path fill="#f24b0f" d="M7.22 19.18A79.24 79.24 0 0 1 0 0a77.33 77.33 0 0 1 23.91 9.45s1.87 1 1.52 2.11-1.69.79-2.53.61c0 0-5.2-1.45-7.65-2.4 0 0-2.42-.88-3.33 0s-1.11 2.56-.07 6.36c1 3.48 2.75 9.65 9.81 18.81 1.27 1.65 2.17 2.61 1.7 3.13s-.82.34-2.47-1A71.24 71.24 0 0 1 7.22 19.18Z"/><path fill="#f7bf13" d="M41.54 7.22A79.18 79.18 0 0 1 60.68 0a77.31 77.31 0 0 1-9.41 23.91s-1 1.87-2.11 1.52-.79-1.68-.61-2.53c0 0 1.45-5.2 2.4-7.65 0 0 .87-2.42 0-3.33s-2.56-1.11-6.36-.07c-3.48 1-9.64 2.75-18.82 9.81-1.65 1.27-2.61 2.17-3.13 1.71s-.33-.82 1-2.47a71.21 71.21 0 0 1 17.9-13.68Z"/><path fill="#f24b0f" d="M53.5 41.54a79.11 79.11 0 0 1 7.22 19.14 77.27 77.27 0 0 1-23.91-9.41s-1.87-1-1.52-2.11 1.68-.8 2.53-.61c0 0 5.2 1.45 7.65 2.4 0 0 2.42.88 3.33 0s1.11-2.55.07-6.36c-1-3.47-2.75-9.64-9.81-18.81-1.27-1.65-2.17-2.61-1.71-3.13s.82-.34 2.47 1A71.22 71.22 0 0 1 53.5 41.54Z"/><path fill="#2d3437" d="M4.34 74.35h.06c.86-2.08 3.31-2.67 5.36-2.67s4.42.55 5 2.67c1.07-2.14 3.56-2.67 5.73-2.67 4.14 0 5.58 1.69 5.58 5.67V88h-2.45V77.6c0-2.73-.4-4-3.53-4-3.43 0-4.9 1-4.9 4.44V88h-2.42V77.17c-.09-2.15-.09-3.53-3.59-3.53C6 73.65 4.34 75 4.34 78.28V88H1.92V71.87h2.42ZM29.29 57.53h2.42V74h.06c.77-2.05 3.31-2.27 5.18-2.27 5.55 0 6.28 3.22 6.28 8.25 0 5.24-.71 8.21-6.28 8.21-2.18 0-4.29-.4-5.18-2.14l-.06.06V88h-2.42Zm7 16.12c-4.23 0-4.51 1.69-4.51 6.28 0 5.21.95 6.25 4.51 6.25 4.29 0 4.44-1.84 4.44-6.25 0-5.27-.58-6.28-4.45-6.28ZM58.07 88h-2.43V71.87h2.42ZM62 86.64a1.33 1.33 0 1 1-.39-.94 1.28 1.28 0 0 1 .39.94Zm-.18 0a1.13 1.13 0 0 0-.33-.82 1.14 1.14 0 0 0-1.62 0 1.16 1.16 0 0 0 0 1.63 1.13 1.13 0 0 0 1.62 0 1.12 1.12 0 0 0 .33-.81Zm-.29.67h-.34l-.5-.54h-.25v.54h-.25v-1.4h.71a.51.51 0 0 1 .18.06.36.36 0 0 1 .14.13.36.36 0 0 1 0 .19.36.36 0 0 1-.09.25.58.58 0 0 1-.24.16Zm-.54-1a.2.2 0 0 0 0-.09.17.17 0 0 0-.07-.07H60.46v.46h.36a.26.26 0 0 0 .11 0 .21.21 0 0 0 .07-.08.3.3 0 0 0 0-.21ZM52.23 86.12a4.59 4.59 0 0 1-.77.06c-1.78 0-2.24-.4-2.27-2.14V73.83h3v-2h-3V68h-2.43v3.89h-2.14v2h2.15v9.41c0 3.77.86 4.84 4.63 4.84.3 0 .57 0 .83-.05Z"/><circle cx="56.85" cy="66.38" r="1.57" fill="#2d3437"/></svg>